<svg version="1.1"
      xmlns="http://www.w3.org/2000/svg"
      xmlns:xlink="http://www.w3.org/1999/xlink"  id="snapshot-83365" width="340" height="344" viewBox="0 0 340 344"><desc>This image was made on Patterninja.com</desc><defs>
<!-- image 96490 -->
<g id="transformed-96490" data-image="96490" transform="translate(22.5, 15.759999999999991) rotate(1, 150, 149)"><g><svg version="1.1" width="300px" height="298px" viewBox="0 0 300 298"><g id="original-96490"><svg xmlns="http://www.w3.org/2000/svg" viewBox="0 0 200 199" xmlns:xlink="http://www.w3.org/1999/xlink" version="1.1" preserveAspectRatio="xMidYMid meet">
  <path fill-rule="evenodd" d="M99.818 129.663c-16.722 0-30.278-13.556-30.278-30.278s13.556-30.279 30.278-30.279c16.723 0 30.279 13.557 30.279 30.28 0 16.721-13.556 30.277-30.28 30.277zm0-74.805c-24.59 0-44.526 19.935-44.526 44.527 0 24.59 19.936 44.526 44.526 44.526 24.593 0 44.528-19.935 44.528-44.526 0-24.592-19.935-44.527-44.528-44.527z" fill="rgba(45, 45, 45, 1)" stroke="none"/>
  <path fill-rule="evenodd" d="M117.986 99.385c0 10.031-8.133 18.166-18.168 18.166-10.032 0-18.167-8.135-18.167-18.166 0-10.034 8.135-18.167 18.167-18.167 10.035 0 18.168 8.133 18.168 18.167" fill="rgba(45, 45, 45, 1)" stroke="none"/>
  <path fill-rule="evenodd" d="M137.678 120.275c30.927 18.246 8.828 42.79-12.165 13.509 20.993 29.281-9.181 42.714-16.605 7.393 7.424 35.32-25.603 35.32-18.177 0-7.426 35.32-37.599 21.888-16.608-7.393-20.99 29.281-43.09 4.737-12.162-13.51-30.927 18.247-41.134-13.164-5.619-17.289-35.515 4.125-32.063-28.722 1.902-18.076-33.965-10.646-17.452-39.25 9.087-15.743-26.54-23.507.18-42.92 14.706-10.686-14.526-32.233 17.78-39.1 17.78-3.78 0-35.32 32.307-28.453 17.782 3.78 14.525-32.233 41.245-12.82 14.707 10.686 26.538-23.507 43.053 5.097 9.088 15.743 33.965-10.646 37.418 22.2 1.901 18.076 35.517 4.125 25.31 35.536-5.617 17.29zm25.126-15.672c51.454 5.972 46.452-41.614-2.753-26.192 49.205-15.422 25.282-56.86-13.165-22.806 38.447-34.054-.265-62.179-21.308-15.48 21.043-46.699-25.76-56.648-25.76-5.476 0-51.172-46.803-41.223-25.76 5.475-21.043-46.698-59.753-18.573-21.305 15.48C14.305 21.552-9.62 62.99 39.585 78.412c-49.204-15.422-54.207 32.164-2.753 26.192-51.454 5.972-36.666 51.48 8.14 25.046-44.806 26.433-12.79 61.991 17.62 19.57-30.41 42.421 13.302 61.885 24.06 10.711-10.758 51.174 37.09 51.174 26.334 0 10.756 51.174 54.469 31.71 24.057-10.711 30.412 42.421 62.43 6.863 17.625-19.57 44.805 26.433 59.59-19.074 8.136-25.046z" fill="rgba(45, 45, 45, 1)" stroke="none"/>
</svg>
</g></svg></g></g>
<!-- /image 96490 -->
</defs><rect x="0" y="0" width="340" height="344" fill="rgba(255, 255, 255, 0)"></rect><use xlink:href="#transformed-96490" transform="translate(-340, -344)"></use><use xlink:href="#transformed-96490" transform="translate(0, -344)"></use><use xlink:href="#transformed-96490" transform="translate(340, -344)"></use><use xlink:href="#transformed-96490" transform="translate(-340, 0)"></use><use xlink:href="#transformed-96490" transform="translate(0, 0)"></use><use xlink:href="#transformed-96490" transform="translate(340, 0)"></use><use xlink:href="#transformed-96490" transform="translate(-340, 344)"></use><use xlink:href="#transformed-96490" transform="translate(0, 344)"></use><use xlink:href="#transformed-96490" transform="translate(340, 344)"></use></svg>