<svg version="1.1"
      xmlns="http://www.w3.org/2000/svg"
      xmlns:xlink="http://www.w3.org/1999/xlink"  id="snapshot-16816" width="1279" height="708" viewBox="0 0 1279 708"><desc>This image was made on Patterninja.com</desc><defs>
<!-- image 12591 -->
<g id="transformed-12591" data-image="12591" transform="translate(518.497126265979, 182.92422106223748) rotate(336, 149.00287373402105, 148.1657789377625)"><g><svg version="1.1" width="298.0057474680421px" height="296.331557875525px" viewBox="0 0 298.0057474680421 296.331557875525"><g id="original-12591"><svg xmlns="http://www.w3.org/2000/svg" viewBox="0 0 200 199" xmlns:xlink="http://www.w3.org/1999/xlink" version="1.1" preserveAspectRatio="xMidYMid meet">
  <path fill-rule="evenodd" d="M99.818 129.663c-16.722 0-30.278-13.556-30.278-30.278s13.556-30.279 30.278-30.279c16.723 0 30.279 13.557 30.279 30.28 0 16.721-13.556 30.277-30.28 30.277zm0-74.805c-24.59 0-44.526 19.935-44.526 44.527 0 24.59 19.936 44.526 44.526 44.526 24.593 0 44.528-19.935 44.528-44.526 0-24.592-19.935-44.527-44.528-44.527z" fill="rgba(45, 45, 45, 1)" stroke="none"/>
  <path fill-rule="evenodd" d="M117.986 99.385c0 10.031-8.133 18.166-18.168 18.166-10.032 0-18.167-8.135-18.167-18.166 0-10.034 8.135-18.167 18.167-18.167 10.035 0 18.168 8.133 18.168 18.167" fill="rgba(45, 45, 45, 1)" stroke="none"/>
  <path fill-rule="evenodd" d="M137.678 120.275c30.927 18.246 8.828 42.79-12.165 13.509 20.993 29.281-9.181 42.714-16.605 7.393 7.424 35.32-25.603 35.32-18.177 0-7.426 35.32-37.599 21.888-16.608-7.393-20.99 29.281-43.09 4.737-12.162-13.51-30.927 18.247-41.134-13.164-5.619-17.289-35.515 4.125-32.063-28.722 1.902-18.076-33.965-10.646-17.452-39.25 9.087-15.743-26.54-23.507.18-42.92 14.706-10.686-14.526-32.233 17.78-39.1 17.78-3.78 0-35.32 32.307-28.453 17.782 3.78 14.525-32.233 41.245-12.82 14.707 10.686 26.538-23.507 43.053 5.097 9.088 15.743 33.965-10.646 37.418 22.2 1.901 18.076 35.517 4.125 25.31 35.536-5.617 17.29zm25.126-15.672c51.454 5.972 46.452-41.614-2.753-26.192 49.205-15.422 25.282-56.86-13.165-22.806 38.447-34.054-.265-62.179-21.308-15.48 21.043-46.699-25.76-56.648-25.76-5.476 0-51.172-46.803-41.223-25.76 5.475-21.043-46.698-59.753-18.573-21.305 15.48C14.305 21.552-9.62 62.99 39.585 78.412c-49.204-15.422-54.207 32.164-2.753 26.192-51.454 5.972-36.666 51.48 8.14 25.046-44.806 26.433-12.79 61.991 17.62 19.57-30.41 42.421 13.302 61.885 24.06 10.711-10.758 51.174 37.09 51.174 26.334 0 10.756 51.174 54.469 31.71 24.057-10.711 30.412 42.421 62.43 6.863 17.625-19.57 44.805 26.433 59.59-19.074 8.136-25.046z" fill="rgba(45, 45, 45, 1)" stroke="none"/>
</svg>
</g></svg></g></g>
<!-- /image 12591 -->

<!-- image 72938 -->
<g id="transformed-72938" data-image="72938" transform="translate(66.76094196238896, 150.7109419623888) rotate(5, 58.52905803761106, 58.529058037611215)"><g><svg version="1.1" width="117.05811607522212px" height="117.05811607522243px" viewBox="0 0 117.05811607522212 117.05811607522243"><g id="original-72938"><svg xmlns="http://www.w3.org/2000/svg" viewBox="0 0 66 66" xmlns:xlink="http://www.w3.org/1999/xlink" version="1.1" preserveAspectRatio="xMidYMid meet">
  <path fill-rule="evenodd" d="M8.251 35.121l22.628 22.628-4.95 7.778L.473 40.071z" fill="rgba(38, 166, 154, 0.8)" stroke="none"/>
  <path fill-rule="evenodd" d="M11.08 54.92a5.881 5.881 0 0 1 .174 8.311c-2.577 2.577-9.367 2.3-10.074 1.589-.707-.711-.988-7.5 1.589-10.074a5.881 5.881 0 0 1 8.311.174z" fill="rgba(255, 84, 0, 1)" stroke="none"/>
  <path fill-rule="evenodd" d="M.473 27.343l1.414-1.414s10.629-2.055 20.551-11.977C42.065-5.675 64.82 1.18 64.82 1.18s6.855 22.755-12.772 42.382c-9.922 9.922-11.977 20.551-11.977 20.551l-1.414 1.414L.473 27.343z" fill="rgba(38, 166, 154, 1)" stroke="none"/>
  <path fill-rule="evenodd" d="M47.142 18.858a10 10 0 1 1-14.142 0c3.905-3.905 10.237-3.905 14.142 0z" fill="rgba(139, 171, 182, 1)" stroke="none"/>
  <path fill-rule="evenodd" d="M45.021 20.979a7 7 0 1 1-9.9 9.899 7 7 0 0 1 9.9-9.899z" fill="rgba(237, 245, 248, 1)" stroke="none"/>
</svg>
</g></svg></g></g>
<!-- /image 72938 -->

<!-- image 46551 -->
<g id="transformed-46551" data-image="46551" transform="translate(383.37585438261743, 521.3658543826174) rotate(3, 57.10414561738259, 57.10414561738259)"><g><svg version="1.1" width="114.20829123476518px" height="114.20829123476518px" viewBox="0 0 114.20829123476518 114.20829123476518"><g id="original-46551"><svg xmlns="http://www.w3.org/2000/svg" viewBox="0 0 161 161" xmlns:xlink="http://www.w3.org/1999/xlink" version="1.1" preserveAspectRatio="xMidYMid meet">
  <circle cx="80.728" cy="80.5" r="80" fill-rule="evenodd" fill="rgba(38, 166, 154, 1)" stroke="none"/>
  <circle cx="80.728" cy="80.5" r="55.885" fill-rule="evenodd" fill="rgba(254, 61, 80, 1)" stroke="none"/>
  <path fill-rule="evenodd" d="M103.341 140.27l-54.776-4.793a1.847 1.847 0 0 1-1.685-1.906l3.573-100.026a1.847 1.847 0 0 1 2.008-1.774l65.053 5.691a1.847 1.847 0 0 1 1.669 2.096l-13.851 99.127a1.847 1.847 0 0 1-1.99 1.584z" fill="rgba(255, 255, 255, 1)" stroke="none"/>
  <path fill-rule="evenodd" d="M79.372 128.069a1.847 1.847 0 0 1-1.99 1.584l-28.092-2.457a1.847 1.847 0 0 1-1.685-1.906l3.35-93.765a1.83 1.83 0 0 0-.421 1.1L46.96 132.65a1.847 1.847 0 0 0 1.685 1.906l54.776 4.792c.98.086 1.854-.61 1.99-1.584l13.85-99.127c.06-.417-26.715-3.152-26.906-3.491l-12.984 92.922z" fill="rgba(81, 228, 194, 0.1)" stroke="none"/>
  <path fill-rule="evenodd" d="M117.362 38.204l-64.88-5.676a1.847 1.847 0 0 1-1.656-2.176l2.223-12.049a1.847 1.847 0 0 1 1.978-1.505l62.56 5.473a1.847 1.847 0 0 1 1.686 1.826l.097 12.252a1.847 1.847 0 0 1-2.008 1.855z" fill="rgba(255, 255, 255, 1)" stroke="none"/>
  <path fill-rule="evenodd" d="M117.587 22.271l-23.591-2.064-1.385 15.831 24.75 2.166a1.847 1.847 0 0 0 2.009-1.855l-.097-12.252a1.847 1.847 0 0 0-1.686-1.826z" fill="rgba(81, 228, 194, 0.1)" stroke="none"/>
  <path fill-rule="evenodd" d="M50.453 33.545l-.235 6.582 68.053 5.954.911-6.523a1.828 1.828 0 0 0-.287-1.256l-67.94-5.944a1.83 1.83 0 0 0-.502 1.187z" fill="rgba(81, 228, 194, 0.1)" stroke="none"/>
  <path fill-rule="evenodd" d="M119.86 43.439l-70.748-6.19a.924.924 0 0 1-.84-1l.52-5.935a.924.924 0 0 1 1-.84l70.748 6.19a.924.924 0 0 1 .84 1.001l-.52 5.934a.924.924 0 0 1-1 .84z" fill="rgba(228, 239, 236, 1)" stroke="none"/>
  <circle cx="80.758" cy="82.962" r="17.386" fill-rule="evenodd" fill="rgba(38, 166, 154, 1)" stroke="none"/>
  <circle cx="80.758" cy="82.962" r="11.772" fill-rule="evenodd" fill="rgba(255, 255, 255, 1)" stroke="none"/>
  <circle cx="80.758" cy="82.962" r="10.564" fill-rule="evenodd" fill="rgba(83, 71, 65, 1)" stroke="none"/>
  <path fill-rule="evenodd" d="M81.09 79.17c-1.697-.15-3.22 1.424-3.403 3.512-.16 1.834.767 3.453 2.144 3.922l.93-3.705.001-.007v.004l.002-.004-.001.007.273 3.81c1.438-.221 2.633-1.655 2.794-3.49.182-2.088-1.045-3.901-2.74-4.05z" fill="rgba(255, 255, 255, 1)" stroke="none"/>
</svg>
</g></svg></g></g>
<!-- /image 46551 -->

<!-- image 40729 -->
<g id="transformed-40729" data-image="40729" transform="translate(261.9827843967255, 293.6227843967255) rotate(0, 54.437215603274524, 54.437215603274495)"><g><svg version="1.1" width="108.87443120654905px" height="108.87443120654899px" viewBox="0 0 108.87443120654905 108.87443120654899"><g id="original-40729"><svg xmlns="http://www.w3.org/2000/svg" viewBox="0 0 161 161" xmlns:xlink="http://www.w3.org/1999/xlink" version="1.1" preserveAspectRatio="xMidYMid meet">
  <circle cx="80.578" cy="80.573" r="80" fill-rule="evenodd" fill="rgba(38, 166, 154, 1)" stroke="none"/>
  <circle cx="80.578" cy="80.573" r="55.885" fill-rule="evenodd" fill="rgba(248, 231, 28, 1)" stroke="none"/>
  <path fill-rule="evenodd" d="M39.298 114.177h8.368v12.135h-8.368z" fill="rgba(255, 255, 255, 1)" stroke="none"/>
  <path fill-rule="evenodd" d="M49.828 114.177h8.368v12.251h-8.368z" fill="rgba(255, 255, 255, 1)" stroke="none"/>
  <path fill-rule="evenodd" d="M60.359 114.177h8.368v12.202h-8.368z" fill="rgba(255, 255, 255, 1)" stroke="none"/>
  <path fill-rule="evenodd" d="M70.889 114.177h8.368v16.694h-8.368z" fill="rgba(255, 255, 255, 1)" stroke="none"/>
  <path fill-rule="evenodd" d="M81.419 114.177h8.368v14.082h-8.368z" fill="rgba(255, 255, 255, 1)" stroke="none"/>
  <path fill-rule="evenodd" d="M91.949 114.177h8.368v12.193h-8.368z" fill="rgba(255, 255, 255, 1)" stroke="none"/>
  <path fill-rule="evenodd" d="M102.48 114.177h8.368v11.137h-8.368z" fill="rgba(255, 255, 255, 1)" stroke="none"/>
  <path fill-rule="evenodd" d="M113.01 114.177h8.368v12.244h-8.368z" fill="rgba(255, 255, 255, 1)" stroke="none"/>
  <path fill-rule="evenodd" d="M137.288 115.167H23.868a8 8 0 0 1-8-8V61.103a8 8 0 0 1 8-8h113.42a8 8 0 0 1 8 8v46.064a8 8 0 0 1-8 8z" fill="rgba(254, 61, 80, 1)" stroke="none"/>
  <path fill-rule="evenodd" d="M145.288 90.85v4.631a9.264 9.264 0 0 1-9.264 9.264H25.132a9.264 9.264 0 0 1-9.264-9.264v6.948a9.264 9.264 0 0 0 9.264 9.264h110.892a9.264 9.264 0 0 0 9.264-9.264V89.691v1.16z" fill="rgba(37, 37, 40, 0.2)" stroke="none"/>
  <path fill-rule="evenodd" d="M39.298 29.352h82.56v49.262h-82.56z" fill="rgba(255, 255, 255, 1)" stroke="none"/>
  <path fill-rule="evenodd" d="M39.298 78.633h82.56v2.475h-82.56z" fill="rgba(37, 37, 40, 0.2)" stroke="none"/>
  <path fill-rule="evenodd" d="M39.298 115.158h8.37v2.138h-8.37z" fill="rgba(254, 61, 80, 0.2)" stroke="none"/>
  <path fill-rule="evenodd" d="M49.827 115.158h8.37v2.138h-8.37z" fill="rgba(254, 61, 80, 0.2)" stroke="none"/>
  <path fill-rule="evenodd" d="M60.358 115.158h8.37v2.138h-8.37z" fill="rgba(254, 61, 80, 0.2)" stroke="none"/>
  <path fill-rule="evenodd" d="M70.888 115.158h8.37v2.138h-8.37z" fill="rgba(254, 61, 80, 0.2)" stroke="none"/>
  <path fill-rule="evenodd" d="M81.418 115.158h8.37v2.138h-8.37z" fill="rgba(254, 61, 80, 0.2)" stroke="none"/>
  <path fill-rule="evenodd" d="M91.949 115.158h8.37v2.138h-8.37z" fill="rgba(254, 61, 80, 0.2)" stroke="none"/>
  <path fill-rule="evenodd" d="M102.479 115.158h8.37v2.138h-8.37z" fill="rgba(254, 61, 80, 0.2)" stroke="none"/>
  <path fill-rule="evenodd" d="M113.01 115.158h8.37v2.138h-8.37z" fill="rgba(254, 61, 80, 0.2)" stroke="none"/>
  <circle cx="119.006" cy="94.867" r="2.852" fill-rule="evenodd" fill="rgba(37, 37, 40, 0.2)" stroke="none"/>
  <circle cx="119.006" cy="92.684" r="2.852" fill-rule="evenodd" fill="rgba(248, 231, 28, 1)" stroke="none"/>
  <circle cx="106.847" cy="94.867" r="2.852" fill-rule="evenodd" fill="rgba(37, 37, 40, 0.2)" stroke="none"/>
  <circle cx="106.847" cy="92.684" r="2.852" fill-rule="evenodd" fill="rgba(248, 231, 28, 1)" stroke="none"/>
</svg>
</g></svg></g></g>
<!-- /image 40729 -->

<!-- image 89206 -->
<g id="transformed-89206" data-image="89206" transform="translate(86.00283190208224, 490.4916997178231) rotate(357, 50.69716809791775, 47.47830028217693)"><g><svg version="1.1" width="101.3943361958355px" height="94.95660056435386px" viewBox="0 0 101.3943361958355 94.95660056435386"><g id="original-89206"><svg xmlns="http://www.w3.org/2000/svg" viewBox="0 0 76 71" xmlns:xlink="http://www.w3.org/1999/xlink" version="1.1" preserveAspectRatio="xMidYMid meet">
  <path fill-rule="evenodd" d="M41.938 1.156l32.429 22.95c2.175 1.54 2.18 4.03 0 5.574L41.938 52.63c-2.175 1.54-5.696 1.543-7.876 0L1.633 29.68c-2.175-1.54-2.18-4.031 0-5.574l32.429-22.95c2.175-1.54 5.696-1.543 7.876 0z" fill="rgba(38, 166, 154, 0.5)" stroke="none"/>
  <path fill-rule="evenodd" d="M10 21h56v40H10z" fill="rgba(252, 252, 252, 1)" stroke="none"/>
  <path fill-rule="evenodd" d="M18.5 34h39a.5.5 0 1 1 0 1h-39a.5.5 0 1 1 0-1z" fill="rgba(187, 187, 187, 1)" stroke="none"/>
  <path fill-rule="evenodd" d="M18.5 31h39a.5.5 0 1 1 0 1h-39a.5.5 0 1 1 0-1z" fill="rgba(187, 187, 187, 1)" stroke="none"/>
  <path fill-rule="evenodd" d="M18.5 28h39a.5.5 0 1 1 0 1h-39a.5.5 0 1 1 0-1z" fill="rgba(187, 187, 187, 1)" stroke="none"/>
  <path fill-rule="evenodd" d="M.002 26.837a6.134 6.134 0 0 0-.002.17v37.987A6 6 0 0 0 5.995 71h64.01A6 6 0 0 0 76 64.994V27.006c0-.056 0-.113-.002-.17-.252.321-.57.623-.955.896L42.011 51.109c-2.215 1.567-5.801 1.571-8.022 0L.957 27.732a4.523 4.523 0 0 1-.955-.895z" fill="rgba(38, 166, 154, 1)" stroke="none"/>
  <path fill-rule="evenodd" d="M52.393 47.393a1 1 0 0 1 1.415 0l17.8 17.8a1 1 0 1 1-1.415 1.415l-17.8-17.8a1 1 0 0 1 0-1.415z" fill="rgba(38, 166, 154, 1)" stroke="none"/>
  <path fill-rule="evenodd" d="M23.607 47.393a1 1 0 0 1 0 1.415l-17.8 17.8a1 1 0 1 1-1.415-1.415l17.8-17.8a1 1 0 0 1 1.415 0z" fill="rgba(38, 166, 154, 1)" stroke="none"/>
</svg>
</g></svg></g></g>
<!-- /image 89206 -->

<!-- image 07222 -->
<g id="transformed-07222" data-image="07222" transform="translate(297.2265759931039, 59.10853993378062) rotate(4, 76.1834240068961, 62.791460066219386)"><g><svg version="1.1" width="152.3668480137922px" height="125.58292013243877px" viewBox="0 0 152.3668480137922 125.58292013243877"><g id="original-07222"><svg xmlns="http://www.w3.org/2000/svg" viewBox="0 0 80 66" xmlns:xlink="http://www.w3.org/1999/xlink" version="1.1" preserveAspectRatio="xMidYMid meet">
  <path fill-rule="evenodd" d="M55 49.22L41 66l6-21.254z" fill="rgba(0, 125, 126, 1)" stroke="none"/>
  <path fill-rule="evenodd" d="M80 0L65 63.763 47 44.746z" fill="rgba(38, 166, 154, 1)" stroke="none"/>
  <path fill-rule="evenodd" d="M80 0L48 45.864 41 66 23 38.034z" fill="rgba(38, 166, 154, 0.8)" stroke="none"/>
  <path fill-rule="evenodd" d="M80 0L23 39.153 0 38.034z" fill="rgba(38, 166, 154, 1)" stroke="none"/>
</svg>
</g></svg></g></g>
<!-- /image 07222 -->

<!-- image 74832 -->
<g id="transformed-74832" data-image="74832" transform="translate(917.4051131137393, 497.2751131137393) rotate(10, 65.04488688626081, 65.04488688626077)"><g><svg version="1.1" width="130.08977377252162px" height="130.08977377252154px" viewBox="0 0 130.08977377252162 130.08977377252154"><g id="original-74832"><svg xmlns="http://www.w3.org/2000/svg" viewBox="0 0 161 161" xmlns:xlink="http://www.w3.org/1999/xlink" version="1.1" preserveAspectRatio="xMidYMid meet">
  <circle cx="80.849" cy="80.774" r="80" fill-rule="evenodd" fill="rgba(38, 166, 154, 1)" stroke="none"/>
  <circle cx="80.849" cy="80.774" r="55.885" fill-rule="evenodd" fill="rgba(254, 61, 80, 1)" stroke="none"/>
  <path fill-rule="evenodd" d="M129.992 72.724l-4.794-32.351c-1.073-7.26-7.641-12.402-14.956-11.707L77.696 31.79a13.777 13.777 0 0 0-9.545 5.223l-47.747 61c-4.696 5.999-3.631 14.668 2.359 19.356l37.34 29.227c5.999 4.696 14.66 3.64 19.356-2.359l47.747-61a13.81 13.81 0 0 0 2.786-10.513zM110.6 43.625a4.286 4.286 0 1 1 5.284-6.75 4.286 4.286 0 0 1-5.284 6.75z" fill="rgba(255, 255, 255, 1)" stroke="none"/>
  <path fill-rule="evenodd" d="M70.893 139.942l-43.954-34.404a2 2 0 0 1-.342-2.808l46.402-59.282a2 2 0 0 1 2.808-.342L119.76 77.51a2 2 0 0 1 .343 2.807L73.7 139.6a2 2 0 0 1-2.807.342z" fill="rgba(38, 166, 154, 1)" stroke="none"/>
  <path fill-rule="evenodd" d="M70.961 136.09l-40.3-31.544a2 2 0 0 1-.341-2.807l42.61-54.44a2 2 0 0 1 2.808-.341l40.3 31.543a2 2 0 0 1 .342 2.808l-42.611 54.439a2 2 0 0 1-2.808.342z" fill="rgba(34, 131, 246, 1)" stroke="none"/>
  <path fill-rule="evenodd" d="M73.53 132.436l-39.938-31.26a2.23 2.23 0 0 1-.381-3.131l-2.75 3.512a2.23 2.23 0 0 0 .382 3.131l39.937 31.26a2.23 2.23 0 0 0 3.13-.382l2.75-3.512a2.23 2.23 0 0 1-3.13.382z" fill="rgba(34, 131, 246, 0.2)" stroke="none"/>
  <path fill-rule="evenodd" d="M63.769 142.358l-37.34-29.227c-5.99-4.689-7.055-13.358-2.36-19.356l-2.25 2.428c-4.694 6-3.63 14.668 2.36 19.356l37.34 29.228c6 4.695 14.66 3.64 19.356-2.36l2.25-2.428c-4.696 5.999-13.358 7.054-19.356 2.36z" fill="rgba(254, 61, 80, 1)" stroke="none"/>
  <path fill-rule="evenodd" d="M60.197 115.885l-18.939-14.824 8.145-10.406 18.939 14.825z" fill="rgba(248, 231, 28, 1)" stroke="none"/>
  <path fill-rule="evenodd" d="M63.893 118.777l-2.195-1.717 8.145-10.406 2.195 1.718z" fill="rgba(248, 231, 28, 1)" stroke="none"/>
  <path fill-rule="evenodd" d="M70.937 124.291l-.58-.453 8.145-10.406.58.454z" fill="rgba(248, 231, 28, 1)" stroke="none"/>
  <path fill-rule="evenodd" d="M39.763 99.89l-.58-.454 8.145-10.405.58.453z" fill="rgba(248, 231, 28, 1)" stroke="none"/>
  <path fill-rule="evenodd" d="M73.564 126.348l-1.297-1.015 8.145-10.406 1.297 1.016z" fill="rgba(248, 231, 28, 1)" stroke="none"/>
  <path fill-rule="evenodd" d="M68.858 122.663l-3.696-2.892 8.145-10.406 3.696 2.893z" fill="rgba(248, 231, 28, 1)" stroke="none"/>
  <path fill-rule="evenodd" d="M127.926 22.688l-1.166-.912a1 1 0 0 0-1.404.17l-11.864 15.158a1 1 0 0 0 .171 1.404l1.166.912a1 1 0 0 0 1.404-.17l11.864-15.158a1 1 0 0 0-.171-1.404z" fill="rgba(34, 131, 246, 1)" stroke="none"/>
  <path fill-rule="evenodd" d="M117.738 37.32l-1.416 1.81a1.145 1.145 0 0 1-1.613.197l-.932-.73a1.152 1.152 0 0 1-.197-1.613l1.417-1.81a1.152 1.152 0 0 0 .196 1.613l.932.73a1.145 1.145 0 0 0 1.613-.197z" fill="rgba(34, 131, 246, 0.2)" stroke="none"/>
</svg>
</g></svg></g></g>
<!-- /image 74832 -->

<!-- image 16389 -->
<g id="transformed-16389" data-image="16389" transform="translate(1122.0409777876075, 100.81097778760757) rotate(344, 53.249022212392426, 53.24902221239243)"><g><svg version="1.1" width="106.49804442478485px" height="106.49804442478487px" viewBox="0 0 106.49804442478485 106.49804442478487"><g id="original-16389"><svg xmlns="http://www.w3.org/2000/svg" viewBox="0 0 68 68" xmlns:xlink="http://www.w3.org/1999/xlink" version="1.1" preserveAspectRatio="xMidYMid meet">
  <path fill-rule="evenodd" d="M67.988 38.877v-9.754l-9.23-2.1a25.557 25.557 0 0 0-2.316-5.6l5.04-8.009-6.9-6.9-8.008 5.04a25.471 25.471 0 0 0-5.6-2.317l-2.1-9.229H29.12l-2.1 9.229a25.491 25.491 0 0 0-5.6 2.317l-8.009-5.04-6.9 6.9 5.04 8.009a25.557 25.557 0 0 0-2.316 5.6l-9.23 2.1v9.754l9.23 2.1a25.557 25.557 0 0 0 2.316 5.6l-5.04 8.009 6.9 6.9 8.009-5.04a25.491 25.491 0 0 0 5.6 2.317l2.1 9.229h9.754l2.1-9.229a25.471 25.471 0 0 0 5.6-2.317l8.008 5.04 6.9-6.9-5.04-8.009a25.557 25.557 0 0 0 2.316-5.6l9.23-2.1z" fill="rgba(38, 166, 154, 1)" stroke="none"/>
  <circle cx="34" cy="34" r="17" fill-rule="evenodd" fill="rgba(255, 255, 255, 1)" stroke="none"/>
</svg>
</g></svg></g></g>
<!-- /image 16389 -->

<!-- image 67217 -->
<g id="transformed-67217" data-image="67217" transform="translate(999.3188301038667, 274.349682935469) rotate(7, 53.45116989613326, 52.56031706453103)"><g><svg version="1.1" width="106.90233979226652px" height="105.12063412906205px" viewBox="0 0 106.90233979226652 105.12063412906205"><g id="original-67217"><svg xmlns="http://www.w3.org/2000/svg" viewBox="0 0 62 61" xmlns:xlink="http://www.w3.org/1999/xlink" version="1.1" preserveAspectRatio="xMidYMid meet">
  <path fill-rule="evenodd" d="M31.081 25.234l13.03-13.03c-.72-2.954.28-6.466 2.882-9.068C49.401.73 52.588-.307 55.393.122l-5.388 6.712c-.352.438-.337 1.088.03 1.455l3.313 3.313c.375.375 1.019.381 1.455.03l6.652-5.339c.38 2.773-.662 5.901-3.033 8.272-2.4 2.401-5.578 3.438-8.376 3.018L36.738 30.891l12.616 12.615c2.955-.72 6.467.281 9.068 2.883 2.408 2.407 3.444 5.595 3.014 8.4L54.725 49.4c-.439-.352-1.089-.336-1.456.031l-3.312 3.312c-.375.375-.382 1.02-.031 1.456l5.34 6.651c-2.774.38-5.902-.661-8.273-3.033-2.4-2.4-3.438-5.577-3.018-8.376L31.081 36.548 18.188 49.44c.42 2.799-.617 5.976-3.018 8.376-2.371 2.372-5.5 3.413-8.272 3.033l5.34-6.651c.35-.437.343-1.08-.032-1.456L8.894 49.43c-.367-.367-1.017-.383-1.456-.03L.726 54.787c-.429-2.804.607-5.992 3.015-8.4 2.601-2.6 6.113-3.601 9.068-2.882L25.425 30.89 12.117 17.582c-2.798.42-5.975-.617-8.376-3.018C1.37 12.195.329 9.066.708 6.293l6.652 5.34c.436.35 1.08.344 1.455-.031l3.312-3.313c.368-.367.383-1.017.031-1.455L6.77.122c2.805-.43 5.992.607 8.4 3.014 2.601 2.602 3.602 6.114 2.882 9.069l13.03 13.029z" fill="rgba(38, 166, 154, 1)" stroke="none"/>
</svg>
</g></svg></g></g>
<!-- /image 67217 -->

<!-- image 08406 -->
<g id="transformed-08406" data-image="08406" transform="translate(870.7977749829473, 61.237774982947265) rotate(359, 55.30222501705272, 55.30222501705274)"><g><svg version="1.1" width="110.60445003410544px" height="110.60445003410548px" viewBox="0 0 110.60445003410544 110.60445003410548"><g id="original-08406"><svg xmlns="http://www.w3.org/2000/svg" viewBox="0 0 161 161" xmlns:xlink="http://www.w3.org/1999/xlink" version="1.1" preserveAspectRatio="xMidYMid meet">
  <circle cx="80.576" cy="80.756" r="80" fill-rule="evenodd" fill="rgba(38, 166, 154, 1)" stroke="none"/>
  <circle cx="80.576" cy="80.756" r="55.885" fill-rule="evenodd" fill="rgba(248, 231, 28, 1)" stroke="none"/>
  <path fill-rule="evenodd" d="M141.135 126.983H20.017a4 4 0 0 1-4-4V38.53a4 4 0 0 1 4-4h121.118a4 4 0 0 1 4 4v84.454a4 4 0 0 1-4 4z" fill="rgba(255, 255, 255, 1)" stroke="none"/>
  <path fill-rule="evenodd" d="M145.138 113.984v7c0 2.21-1.79 4-4 4H20.018c-2.21 0-4-1.79-4-4v-7c0 2.21 1.79 4 4 4h121.12c2.21 0 4-1.79 4-4z" fill="rgba(240, 242, 241, 1)" stroke="none"/>
  <path fill-rule="evenodd" d="M145.138 38.524v5.89H16.018v-5.89c0-2.2 1.79-4 4-4h121.12c2.21 0 4 1.8 4 4z" fill="rgba(255, 255, 255, 1)" stroke="none"/>
  <path fill-rule="evenodd" d="M26.018 100.414h36.237v26.496H26.018z" fill="rgba(81, 228, 194, 1)" stroke="none"/>
  <circle cx="24.691" cy="39.469" r="1.695" fill-rule="evenodd" fill="rgba(254, 61, 80, 1)" stroke="none"/>
  <circle cx="30.566" cy="39.469" r="1.695" fill-rule="evenodd" fill="rgba(248, 231, 28, 1)" stroke="none"/>
  <circle cx="36.441" cy="39.469" r="1.695" fill-rule="evenodd" fill="rgba(81, 228, 194, 1)" stroke="none"/>
  <path fill-rule="evenodd" d="M16.018 44.414h129.117" fill="rgba(0, 0, 0, 1)" stroke="rgba(232, 237, 235, 1)"/>
  <path fill-rule="evenodd" d="M70.463 54.414h18.625v2.75H70.463z" fill="rgba(232, 237, 235, 1)" stroke="none"/>
  <path fill-rule="evenodd" d="M70.463 64.414h64.625v2.75H70.463z" fill="rgba(232, 237, 235, 1)" stroke="none"/>
  <path fill-rule="evenodd" d="M70.463 74.414h64.625v2.75H70.463z" fill="rgba(232, 237, 235, 1)" stroke="none"/>
  <path fill-rule="evenodd" d="M70.463 100.414h18.625v2.75H70.463z" fill="rgba(232, 237, 235, 1)" stroke="none"/>
  <path fill-rule="evenodd" d="M70.463 110.414h64.625v2.75H70.463z" fill="rgba(232, 237, 235, 1)" stroke="none"/>
  <path fill-rule="evenodd" d="M70.463 120.414h64.625v2.75H70.463z" fill="rgba(232, 237, 235, 1)" stroke="none"/>
  <path fill-rule="evenodd" d="M26.018 54.414h36.237v36.237H26.018z" fill="rgba(34, 131, 246, 1)" stroke="none"/>
  <path fill-rule="evenodd" d="M26.018 87.56h36.237v3.091H26.018z" fill="rgba(37, 37, 40, 0.3)" stroke="none"/>
  <path fill-rule="evenodd" d="M101.588 84.58H87.255a3 3 0 0 0-3 3v.07a3 3 0 0 0 3 3h14.333a3 3 0 0 0 3-3v-.07a3 3 0 0 0-3-3z" fill="rgba(248, 231, 28, 1)" stroke="none"/>
  <path fill-rule="evenodd" d="M131.588 84.58h-14.333a3 3 0 0 0-3 3v.07a3 3 0 0 0 3 3h14.333a3 3 0 0 0 3-3v-.07a3 3 0 0 0-3-3z" fill="rgba(254, 61, 80, 1)" stroke="none"/>
</svg>
</g></svg></g></g>
<!-- /image 08406 -->
</defs><rect x="0" y="0" width="1279" height="708" fill="rgba(255, 255, 255, 1)"></rect><use xlink:href="#transformed-12591" transform="translate(-1279, -708)"></use><use xlink:href="#transformed-12591" transform="translate(0, -708)"></use><use xlink:href="#transformed-12591" transform="translate(1279, -708)"></use><use xlink:href="#transformed-12591" transform="translate(-1279, 0)"></use><use xlink:href="#transformed-12591" transform="translate(0, 0)"></use><use xlink:href="#transformed-12591" transform="translate(1279, 0)"></use><use xlink:href="#transformed-12591" transform="translate(-1279, 708)"></use><use xlink:href="#transformed-12591" transform="translate(0, 708)"></use><use xlink:href="#transformed-12591" transform="translate(1279, 708)"></use><use xlink:href="#transformed-72938" transform="translate(-1279, -708)"></use><use xlink:href="#transformed-72938" transform="translate(0, -708)"></use><use xlink:href="#transformed-72938" transform="translate(1279, -708)"></use><use xlink:href="#transformed-72938" transform="translate(-1279, 0)"></use><use xlink:href="#transformed-72938" transform="translate(0, 0)"></use><use xlink:href="#transformed-72938" transform="translate(1279, 0)"></use><use xlink:href="#transformed-72938" transform="translate(-1279, 708)"></use><use xlink:href="#transformed-72938" transform="translate(0, 708)"></use><use xlink:href="#transformed-72938" transform="translate(1279, 708)"></use><use xlink:href="#transformed-46551" transform="translate(-1279, -708)"></use><use xlink:href="#transformed-46551" transform="translate(0, -708)"></use><use xlink:href="#transformed-46551" transform="translate(1279, -708)"></use><use xlink:href="#transformed-46551" transform="translate(-1279, 0)"></use><use xlink:href="#transformed-46551" transform="translate(0, 0)"></use><use xlink:href="#transformed-46551" transform="translate(1279, 0)"></use><use xlink:href="#transformed-46551" transform="translate(-1279, 708)"></use><use xlink:href="#transformed-46551" transform="translate(0, 708)"></use><use xlink:href="#transformed-46551" transform="translate(1279, 708)"></use><use xlink:href="#transformed-40729" transform="translate(-1279, -708)"></use><use xlink:href="#transformed-40729" transform="translate(0, -708)"></use><use xlink:href="#transformed-40729" transform="translate(1279, -708)"></use><use xlink:href="#transformed-40729" transform="translate(-1279, 0)"></use><use xlink:href="#transformed-40729" transform="translate(0, 0)"></use><use xlink:href="#transformed-40729" transform="translate(1279, 0)"></use><use xlink:href="#transformed-40729" transform="translate(-1279, 708)"></use><use xlink:href="#transformed-40729" transform="translate(0, 708)"></use><use xlink:href="#transformed-40729" transform="translate(1279, 708)"></use><use xlink:href="#transformed-89206" transform="translate(-1279, -708)"></use><use xlink:href="#transformed-89206" transform="translate(0, -708)"></use><use xlink:href="#transformed-89206" transform="translate(1279, -708)"></use><use xlink:href="#transformed-89206" transform="translate(-1279, 0)"></use><use xlink:href="#transformed-89206" transform="translate(0, 0)"></use><use xlink:href="#transformed-89206" transform="translate(1279, 0)"></use><use xlink:href="#transformed-89206" transform="translate(-1279, 708)"></use><use xlink:href="#transformed-89206" transform="translate(0, 708)"></use><use xlink:href="#transformed-89206" transform="translate(1279, 708)"></use><use xlink:href="#transformed-07222" transform="translate(-1279, -708)"></use><use xlink:href="#transformed-07222" transform="translate(0, -708)"></use><use xlink:href="#transformed-07222" transform="translate(1279, -708)"></use><use xlink:href="#transformed-07222" transform="translate(-1279, 0)"></use><use xlink:href="#transformed-07222" transform="translate(0, 0)"></use><use xlink:href="#transformed-07222" transform="translate(1279, 0)"></use><use xlink:href="#transformed-07222" transform="translate(-1279, 708)"></use><use xlink:href="#transformed-07222" transform="translate(0, 708)"></use><use xlink:href="#transformed-07222" transform="translate(1279, 708)"></use><use xlink:href="#transformed-74832" transform="translate(-1279, -708)"></use><use xlink:href="#transformed-74832" transform="translate(0, -708)"></use><use xlink:href="#transformed-74832" transform="translate(1279, -708)"></use><use xlink:href="#transformed-74832" transform="translate(-1279, 0)"></use><use xlink:href="#transformed-74832" transform="translate(0, 0)"></use><use xlink:href="#transformed-74832" transform="translate(1279, 0)"></use><use xlink:href="#transformed-74832" transform="translate(-1279, 708)"></use><use xlink:href="#transformed-74832" transform="translate(0, 708)"></use><use xlink:href="#transformed-74832" transform="translate(1279, 708)"></use><use xlink:href="#transformed-16389" transform="translate(-1279, -708)"></use><use xlink:href="#transformed-16389" transform="translate(0, -708)"></use><use xlink:href="#transformed-16389" transform="translate(1279, -708)"></use><use xlink:href="#transformed-16389" transform="translate(-1279, 0)"></use><use xlink:href="#transformed-16389" transform="translate(0, 0)"></use><use xlink:href="#transformed-16389" transform="translate(1279, 0)"></use><use xlink:href="#transformed-16389" transform="translate(-1279, 708)"></use><use xlink:href="#transformed-16389" transform="translate(0, 708)"></use><use xlink:href="#transformed-16389" transform="translate(1279, 708)"></use><use xlink:href="#transformed-67217" transform="translate(-1279, -708)"></use><use xlink:href="#transformed-67217" transform="translate(0, -708)"></use><use xlink:href="#transformed-67217" transform="translate(1279, -708)"></use><use xlink:href="#transformed-67217" transform="translate(-1279, 0)"></use><use xlink:href="#transformed-67217" transform="translate(0, 0)"></use><use xlink:href="#transformed-67217" transform="translate(1279, 0)"></use><use xlink:href="#transformed-67217" transform="translate(-1279, 708)"></use><use xlink:href="#transformed-67217" transform="translate(0, 708)"></use><use xlink:href="#transformed-67217" transform="translate(1279, 708)"></use><use xlink:href="#transformed-08406" transform="translate(-1279, -708)"></use><use xlink:href="#transformed-08406" transform="translate(0, -708)"></use><use xlink:href="#transformed-08406" transform="translate(1279, -708)"></use><use xlink:href="#transformed-08406" transform="translate(-1279, 0)"></use><use xlink:href="#transformed-08406" transform="translate(0, 0)"></use><use xlink:href="#transformed-08406" transform="translate(1279, 0)"></use><use xlink:href="#transformed-08406" transform="translate(-1279, 708)"></use><use xlink:href="#transformed-08406" transform="translate(0, 708)"></use><use xlink:href="#transformed-08406" transform="translate(1279, 708)"></use></svg>